<?xml version="1.0" encoding="UTF-8" standalone="no"?>
<!-- Generator: Adobe Illustrator 22.1.0, SVG Export Plug-In . SVG Version: 6.00 Build 0)  -->

<svg
   xmlns:dc="http://purl.org/dc/elements/1.1/"
   xmlns:cc="http://creativecommons.org/ns#"
   xmlns:rdf="http://www.w3.org/1999/02/22-rdf-syntax-ns#"
   xmlns:svg="http://www.w3.org/2000/svg"
   xmlns="http://www.w3.org/2000/svg"
   xmlns:sodipodi="http://sodipodi.sourceforge.net/DTD/sodipodi-0.dtd"
   xmlns:inkscape="http://www.inkscape.org/namespaces/inkscape"
   version="1.1"
   id="Layer_1"
   x="0px"
   y="0px"
   viewBox="0 0 40 35"
   xml:space="preserve"
   sodipodi:docname="genius-cropped.svg"
   width="40"
   height="35"
   inkscape:version="0.92.3 (2405546, 2018-03-11)"><metadata
   id="metadata39"><rdf:RDF><cc:Work
       rdf:about=""><dc:format>image/svg+xml</dc:format><dc:type
         rdf:resource="http://purl.org/dc/dcmitype/StillImage" /><dc:title></dc:title></cc:Work></rdf:RDF></metadata><defs
   id="defs37">
	
	
	
	
	
	
	
	
	
	
	
	
	
	
	
</defs><sodipodi:namedview
   pagecolor="#ffffff"
   bordercolor="#666666"
   borderopacity="1"
   objecttolerance="10"
   gridtolerance="10"
   guidetolerance="10"
   inkscape:pageopacity="0"
   inkscape:pageshadow="2"
   inkscape:window-width="1920"
   inkscape:window-height="1001"
   id="namedview35"
   showgrid="true"
   inkscape:zoom="6.8571428"
   inkscape:cx="72.008164"
   inkscape:cy="6.1909565"
   inkscape:window-x="-9"
   inkscape:window-y="-9"
   inkscape:window-maximized="1"
   inkscape:current-layer="Layer_1"><inkscape:grid
     type="xygrid"
     id="grid846" /></sodipodi:namedview>
<path
   inkscape:connector-curvature="0"
   id="path2"
   d="M 32.6,5.9 C 32.5,5.8 32.5,5.7 32.4,5.7 30.6,3.9 28.1,2.8 25.4,2.8 c -2.7,0 -5.2,1.1 -7,2.9 -0.5,0.5 -0.9,1 -1.3,1.6 v 0 c 0,0 0,0.1 0,0.2 0,0.2 0.1,0.3 0.3,0.3 h 0.1 v 0 c 1.1,-0.4 2.4,-0.7 3.7,-0.7 2.9,0 5.5,1.2 7.4,3 v 0 0 0 c 0.1,0 0.1,0.1 0.2,0.1 v 0 0 h 3.7 c 0.2,0 0.3,-0.1 0.3,-0.3 v -3.7 0 C 32.7,6.1 32.6,6 32.6,5.9 Z" /><path
   inkscape:connector-curvature="0"
   id="path4"
   d="m 32.4,17.8 h -2.5 -0.8 -0.5 v 0 0 c -2,0 -3.6,-1.5 -3.8,-3.5 v 0 C 24.8,14.1 24.7,14 24.5,14 v 0 0 0 0 c -0.8,0.1 -1.6,0.4 -2.1,0.9 v 0 L 22.3,15 v 0 l -0.1,0.1 v 0 l -0.1,0.1 v 0 c 0,0 0,0.1 -0.1,0.1 0,0 0,0 0,0.1 0,0 0,0.1 -0.1,0.1 0,0 0,0 0,0.1 0,0 0,0.1 -0.1,0.1 0,0 0,0 0,0.1 0,0 0,0.1 -0.1,0.1 0,0 0,0 0,0.1 v 0.1 c 0,0 0,0 0,0.1 v 0.1 0.1 0.1 0.1 0.1 0.1 0.1 0.1 0.1 0.1 0.1 0.1 0.1 0.1 c 0,0 0,0 0,0.1 v 0.1 c 0,0 0,0 0,0.1 0,0.1 0,0.1 0,0.2 v 0 0 0.1 c 0,2.1 1.7,3.7 3.8,3.7 h 1.8 0.9 c 0.2,0 0.3,0.1 0.3,0.3 v 1 c 0,0.2 0.1,0.3 0.3,0.3 h 0.1 c 1.6,-0.3 3.1,-1.1 4.3,-2.1 v 0 c 0.1,-0.1 0.1,-0.1 0.1,-0.2 v 0 0 -1.7 -0.3 -1.2 c -0.6,-0.1 -0.8,-0.2 -0.9,-0.2 z" /><path
   inkscape:connector-curvature="0"
   id="path6"
   d="m 32.2,29 c 0,0 -0.1,0 0,0 v 0 c -0.1,0 -0.1,0 0,0 v 0 c -2,0.7 -4.2,1.2 -6.4,1.2 -9.5,0 -17.3,-7.7 -17.3,-17.3 0,-2.2 0.4,-4.3 1.2,-6.3 v 0 -0.1 C 9.7,6.3 9.6,6.2 9.4,6.2 9.3,6.2 9.2,6.2 9.2,6.3 v 0 C 6.4,9.2 4.7,13.2 4.7,17.6 4.7,26.7 12,34 21.1,34 c 4.4,0 8.4,-1.7 11.3,-4.5 v 0 c 0.1,-0.1 0.1,-0.1 0.1,-0.2 0,-0.2 -0.1,-0.3 -0.3,-0.3 z" />
</svg>