<?xml version="1.0" encoding="utf-8"?>
<!-- Generator: Adobe Illustrator 22.1.0, SVG Export Plug-In . SVG Version: 6.00 Build 0)  -->
<svg version="1.1" id="Layer_1" xmlns="http://www.w3.org/2000/svg" xmlns:xlink="http://www.w3.org/1999/xlink" x="0px" y="0px"
	 viewBox="0 0 259 35" style="enable-background:new 0 0 259 35;" xml:space="preserve">
<g>
	<path d="M32.6,5.9c-0.1-0.1-0.1-0.2-0.2-0.2c-1.8-1.8-4.3-2.9-7-2.9s-5.2,1.1-7,2.9c-0.5,0.5-0.9,1-1.3,1.6l0,0c0,0,0,0.1,0,0.2
		c0,0.2,0.1,0.3,0.3,0.3h0.1l0,0c1.1-0.4,2.4-0.7,3.7-0.7c2.9,0,5.5,1.2,7.4,3l0,0l0,0l0,0c0.1,0,0.1,0.1,0.2,0.1l0,0l0,0h3.7
		c0.2,0,0.3-0.1,0.3-0.3V6.2l0,0C32.7,6.1,32.6,6,32.6,5.9z"/>
	<path d="M32.4,17.8h-2.5h-0.8h-0.5l0,0l0,0c-2,0-3.6-1.5-3.8-3.5l0,0c0-0.2-0.1-0.3-0.3-0.3l0,0l0,0l0,0l0,0
		c-0.8,0.1-1.6,0.4-2.1,0.9l0,0L22.3,15l0,0l-0.1,0.1l0,0l-0.1,0.1l0,0c0,0,0,0.1-0.1,0.1c0,0,0,0,0,0.1c0,0,0,0.1-0.1,0.1
		c0,0,0,0,0,0.1c0,0,0,0.1-0.1,0.1c0,0,0,0,0,0.1c0,0,0,0.1-0.1,0.1c0,0,0,0,0,0.1v0.1c0,0,0,0,0,0.1v0.1v0.1v0.1v0.1v0.1v0.1v0.1
		V17v0.1v0.1v0.1v0.1v0.1v0.1c0,0,0,0,0,0.1v0.1c0,0,0,0,0,0.1s0,0.1,0,0.2l0,0l0,0v0.1c0,2.1,1.7,3.7,3.8,3.7h1.8h0.9
		c0.2,0,0.3,0.1,0.3,0.3v1c0,0.2,0.1,0.3,0.3,0.3h0.1c1.6-0.3,3.1-1.1,4.3-2.1l0,0c0.1-0.1,0.1-0.1,0.1-0.2l0,0l0,0v-1.7v-0.3V18
		C32.7,17.9,32.5,17.8,32.4,17.8z"/>
	<path d="M32.2,29C32.2,29,32.1,29,32.2,29L32.2,29C32.1,29,32.1,29,32.2,29L32.2,29c-2,0.7-4.2,1.2-6.4,1.2
		c-9.5,0-17.3-7.7-17.3-17.3c0-2.2,0.4-4.3,1.2-6.3l0,0V6.5c0-0.2-0.1-0.3-0.3-0.3c-0.1,0-0.2,0-0.2,0.1l0,0
		c-2.8,2.9-4.5,6.9-4.5,11.3C4.7,26.7,12,34,21.1,34c4.4,0,8.4-1.7,11.3-4.5l0,0c0.1-0.1,0.1-0.1,0.1-0.2C32.5,29.1,32.4,29,32.2,29
		z"/>
	<path d="M67,20.9h9c2.1,0,3.6-1.4,3.6-3.4v-0.4c0-0.2-0.1-0.3-0.3-0.3H66.9c-0.2,0-0.3,0.1-0.3,0.3v3.4
		C66.7,20.8,66.9,20.9,67,20.9z"/>
	<path d="M80.2,3.8H67.1c-0.2,0-0.3,0.1-0.3,0.3v3.4c0,0.2,0.1,0.3,0.3,0.3h9.8c2.1,0,3.6-1.4,3.6-3.4V4C80.5,4,80.3,3.8,80.2,3.8z"
		/>
	<path d="M80.2,30L80.2,30H64.6c-2.5,0-4-1.5-4-4V2.2v-1c0-0.2-0.1-0.3-0.3-0.3l0,0c-2.8,0.1-4.5,1.8-4.5,4.7v23.8
		c0,2.9,1.7,4.7,4.7,4.7h16.4c2.2,0,3.7-1.4,3.7-3.4v-0.3C80.5,30.1,80.3,30,80.2,30z"/>
	<path d="M110.8,29.9L110.8,29.9c-1.4-0.3-2.3-1.5-2.3-3.2V1.5V1.4c0-0.1-0.1-0.2-0.2-0.3l0,0l0,0l0,0C108,1,107.6,1,107.4,1
		c-2.2,0-3.7,1.6-3.7,3.9v25.2c0,2.4,1.5,3.9,3.7,3.9s3.6-1.5,3.7-3.8l0,0C111,30,110.9,29.9,110.8,29.9z"/>
	<path d="M131.6,29.9C131.5,29.9,131.5,29.9,131.6,29.9c-0.2,0-0.5,0-0.6,0c-2.3,0.1-3.5-1.1-4.5-2.8L115.1,8.2l0,0
		C115,8.1,114.9,8,114.8,8c-0.2,0-0.3,0.1-0.3,0.3l0,0l0,0v10.5l7.2,12c1,1.6,2.3,3.1,5.1,3.1c2.6,0,4.4-1.3,5.1-3.7v-0.1
		C131.9,30,131.7,29.9,131.6,29.9z"/>
	<path d="M129.2,20.1c0.2,0,0.3-0.1,0.3-0.3l0,0l0,0V1.5V1.3c0-0.1-0.1-0.3-0.2-0.3l0,0c-0.3-0.1-0.6-0.1-0.9-0.1
		c-2.2,0-3.7,1.6-3.7,3.9v8l4.3,7.1C129,20,129.1,20.1,129.2,20.1z"/>
	<path d="M162.3,29.9L162.3,29.9L162.3,29.9c-1.5-0.3-2.3-1.5-2.3-3.2V1.5V1.3c0-0.2-0.1-0.3-0.3-0.3l0,0l0,0
		c-0.3-0.1-0.6-0.1-0.9-0.1c-2.2,0-3.7,1.6-3.7,3.9V30c0,2.4,1.5,3.9,3.7,3.9c2.2,0,3.6-1.5,3.7-3.8l0,0
		C162.6,30,162.5,29.9,162.3,29.9z"/>
	<path d="M209.4,28.6c-0.1,0-0.1,0-0.2,0l-0.1,0.1c-1.8,0.9-3.9,1.3-6.3,1.3c-4.1,0-7.3-1.2-9.5-3.6c-2.3-2.5-3.5-6.1-3.5-10.8V1.2
		V1c0-0.2-0.1-0.3-0.3-0.3l0,0l0,0c-0.3-0.1-0.6-0.1-0.9-0.1c-2.2,0-3.7,1.6-3.7,3.9v14.4c0,9.5,5,15,13.7,15
		c4.8,0,8.5-1.7,10.9-4.8l0.1-0.1l0,0c0-0.1,0.1-0.1,0.1-0.2S209.6,28.6,209.4,28.6z"/>
	<path d="M209.5,0.8L209.5,0.8c-0.3-0.1-0.6-0.1-0.9-0.1c-2.2,0-3.7,1.6-3.7,3.9v14.6c0,1.8-0.3,3.4-0.8,4.6v0.1l0,0l0,0l0,0V24
		c0,0.2,0.1,0.3,0.3,0.3h0.1c3.5-0.7,5.3-3.5,5.3-8.4V1.3V1.1l0,0C209.8,1,209.7,0.8,209.5,0.8z"/>
	<path d="M241.8,20.3l3.5,0.6c3.7,0.7,4.2,2.1,4.2,3l0,0l0,0c0,0.2,0.1,0.3,0.3,0.3l0,0l0,0l0,0c2.8-0.4,4.5-1.8,4.5-3.7
		s-1.6-3.1-4.7-3.7l-3.5-0.6c-8.1-1.5-9.8-5.9-9.8-9.3c0-1.8,0.5-3.4,1.5-4.8l0.1-0.2l0,0V1.8c0-0.2-0.1-0.3-0.3-0.3h-0.1l0,0l0,0
		l0,0l-0.1,0.1c-3.7,1.7-5.9,4.9-5.9,8.7C231.5,15.6,235.2,19.1,241.8,20.3z"/>
	<path d="M255.2,28.5C255.2,28.5,255.1,28.5,255.2,28.5h-0.1l0,0l0,0l-0.1,0.1c-2,0.9-4.3,1.4-6.9,1.4c-4.1,0-7.7-1.2-11.1-3.7
		c-0.9-0.7-1.3-1.5-1.4-2.4l0,0l0,0c0-0.1-0.1-0.3-0.2-0.3l0,0c-0.3-0.1-0.7-0.2-1-0.2c-1.1,0-2.1,0.6-2.8,1.5
		c-0.6,0.8-0.9,1.8-0.8,2.7c0.1,1,0.7,1.9,1.6,2.6c3.5,2.6,7.2,3.8,11.5,3.8c5.2,0,9.4-1.8,11.5-4.9l0.1-0.1l0,0
		c0,0,0.1-0.1,0.1-0.2C255.5,28.7,255.4,28.5,255.2,28.5z"/>
	<path d="M242.4,6.7c0,0.2,0.1,0.3,0.3,0.3l0,0l0,0c0.1,0,0.1,0,0.2,0s0.2,0,0.3,0c2.8,0,4.3,0.7,6.2,2.1c0.8,0.6,1.6,0.9,2.4,0.9
		l0,0c1.1,0,2.1-0.5,2.8-1.5c0.5-0.7,0.8-1.5,0.8-2.4l0,0l0,0c0-0.1-0.1-0.3-0.2-0.3l0,0l0,0c-0.4-0.1-0.8-0.3-1.2-0.6
		c-1.9-1.4-3.7-2.3-6.6-2.3c-3,0-5.1,1.4-5,3.5C242.4,6.4,242.4,6.5,242.4,6.7L242.4,6.7z"/>
</g>
</svg>
